<svg xmlns="http://www.w3.org/2000/svg" xmlns:xlink="http://www.w3.org/1999/xlink" width="80.92" height="80.92" viewBox="0 0 80.92 80.92"><defs><radialGradient id="radial-gradient" cx="40.46" cy="40.46" r="40.46" gradientUnits="userSpaceOnUse"><stop offset="0" stop-color="#a31f34"/><stop offset="0.54" stop-color="#a11e33"/><stop offset="0.76" stop-color="#9a1c30"/><stop offset="0.92" stop-color="#8e182a"/><stop offset="1" stop-color="#841526"/></radialGradient></defs><title>Asset 5</title><g id="Layer_2" data-name="Layer 2"><g id="Layer_1-2" data-name="Layer 1"><circle cx="40.46" cy="40.46" r="40.46" fill="url(#radial-gradient)"/><path d="M64.78,15.71a.84.84,0,0,0-1.2,0l-4,4H41.07L16.51,44.46a2.13,2.13,0,0,0,0,3L33.85,64.83a2.14,2.14,0,0,0,3,0L60.8,40.27V20.9l4-4A.85.85,0,0,0,64.78,15.71ZM55.71,28.17A3.43,3.43,0,1,1,54,25.26l-2.31,2.31a.85.85,0,0,0,1.2,1.2l2.31-2.31A3.36,3.36,0,0,1,55.71,28.17Z" fill="#fff"/></g></g></svg>